<svg xmlns="http://www.w3.org/2000/svg" xmlns:xlink="http://www.w3.org/1999/xlink" xmlns:lucid="lucid" width="1380" height="840"><g transform="translate(0 -20)" lucid:page-tab-id="0_0"><path d="M0 0h1360v1760H0z" fill="#fff"/><path d="M1100 130c0 49.7-49.25 90-110 90s-110-40.3-110-90 49.25-90 110-90 110 40.3 110 90z" stroke="#000" stroke-width="2" fill="#c7e8ac" fill-opacity=".41"/><use xlink:href="#a" transform="matrix(1,0,0,1,880,40) translate(37.13 93.15)"/><use xlink:href="#b" transform="matrix(1,0,0,1,880,40) translate(65.03 93.15)"/><use xlink:href="#c" transform="matrix(1,0,0,1,880,40) translate(143.88 93.15)"/><path d="M200 170c0 49.7-40.3 90-90 90s-90-40.3-90-90 40.3-90 90-90 90 40.3 90 90z" stroke="#000" stroke-width="2" fill="#ffdba9" fill-opacity=".46"/><use xlink:href="#d" transform="matrix(1,0,0,1,20,80) translate(44.555 93.15)"/><use xlink:href="#c" transform="matrix(1,0,0,1,20,80) translate(96.455 93.15)"/><path d="M1222.8 148.7l2.64 1.65 2.4 1.66 2.18 1.68 2 1.66 1.87 1.67 1.7 1.7 1.6 1.7 1.48 1.7 1.37 1.73 1.28 1.77 1.2 1.8 1.1 1.82 1.03 1.88.96 1.92.88 2 .82 2.05.74 2.13.38 1.25-1.92.58-.36-1.22-.72-2.04-.78-1.97-.85-1.92-.9-1.86-1-1.8-1.07-1.76-1.14-1.72-1.24-1.7-1.32-1.66-1.43-1.65-1.52-1.64-1.66-1.63-1.8-1.6-1.94-1.62-2.13-1.62-2.32-1.6-2.56-1.63-2.82-1.63-.52-.27h4.05zm-86.87-19.1l18.16 1.1 5.3.56v2.02l-5.47-.57-18.08-1.1-33.87-.58.04-2z"/><path d="M1102.04 129.02l-.03 2-1.02-.02.02-1v-1zM1249.56 195.8l-6.54-13.5 9.18-1.27z"/><path d="M1250 199l-8.48-17.5 11.9-1.65zm-5.48-15.9l4.6 9.5 1.85-10.4z"/><use xlink:href="#e" transform="matrix(1,0,0,1,1159.3950237198558,126.89854767942235) translate(0 14.4)"/><path d="M200 410c0 49.7-40.3 90-90 90s-90-40.3-90-90 40.3-90 90-90 90 40.3 90 90z" stroke="#000" stroke-width="2" fill="#ffdba9" fill-opacity=".46"/><use xlink:href="#d" transform="matrix(1,0,0,1,20,320) translate(44.055 93.15)"/><use xlink:href="#f" transform="matrix(1,0,0,1,20,320) translate(95.955 93.15)"/><path d="M538.67 170c0 49.7-40.3 90-90 90s-90-40.3-90-90 40.3-90 90-90 90 40.3 90 90z" stroke="#000" stroke-width="2" fill="#c7e8ac" fill-opacity=".41"/><use xlink:href="#a" transform="matrix(1,0,0,1,358.6668475442058,80) translate(56.555 93.15)"/><use xlink:href="#c" transform="matrix(1,0,0,1,358.6668475442058,80) translate(84.455 93.15)"/><path d="M538.67 410c0 49.7-40.3 90-90 90s-90-40.3-90-90 40.3-90 90-90 90 40.3 90 90z" stroke="#000" stroke-width="2" fill="#c7e8ac" fill-opacity=".41"/><use xlink:href="#a" transform="matrix(1,0,0,1,358.6668475442058,320) translate(56.055 93.15)"/><use xlink:href="#f" transform="matrix(1,0,0,1,358.6668475442058,320) translate(83.955 93.15)"/><path d="M241.26 171H202v-2h39.26zm97.9 0H295.1v-2h44.06z"/><path d="M202.03 171h-1.06l.03-1v-1h1.03zM354.43 170l-14.27 4.64v-9.28z"/><path d="M357.67 170l-18.5 6v-12zm-16.5 3.26l10.02-3.26-10.04-3.26z"/><use xlink:href="#g" transform="matrix(1,0,0,1,241.25984709971652,159.20000000000002) translate(0 14.4)"/><path d="M252.4 411H202v-2h50.4zm86.76 0h-32.9v-2h32.9z"/><path d="M202.03 411h-1.06l.03-1v-1h1.03zM354.43 410l-14.27 4.64v-9.28z"/><path d="M357.67 410l-18.5 6v-12zm-16.5 3.26l10.02-3.26-10.04-3.26z"/><use xlink:href="#g" transform="matrix(1,0,0,1,252.4095987612754,399.2) translate(0 14.4)"/><path d="M644.55 164.04l-12.1 1.78-24.58 2.58-29.55 1.83-37.63.75-.05-2 37.58-.75 29.47-1.83 24.5-2.56 12.35-1.82zm215.97-32.67l-20.1.4-29.46 1.83-24.5 2.56-22.5 3.32-40.5 8.8v-2.05l40.14-8.72 22.6-3.32 24.6-2.58 29.55-1.83 20.13-.4z"/><path d="M540.72 170.98l-1.08.02.03-1v-1l1-.02zM875.76 130.06l-14.17 4.92-.2-9.27z"/><path d="M879 130l-18.38 6.38-.24-12.02zm-16.43 3.6l9.96-3.47-10.1-3.06z"/><use xlink:href="#h" transform="matrix(1,0,0,1,644.5498401021223,145.01410456810987) translate(0 14.4)"/><path d="M1360 290c0 49.7-49.25 90-110 90s-110-40.3-110-90 49.25-90 110-90 110 40.3 110 90z" stroke="#000" stroke-width="2" fill="#c7e8ac" fill-opacity=".41"/><use xlink:href="#a" transform="matrix(1,0,0,1,1140,200) translate(33.07999999999999 93.15)"/><use xlink:href="#i" transform="matrix(1,0,0,1,1140,200) translate(60.97999999999999 93.15)"/><use xlink:href="#j" transform="matrix(1,0,0,1,1140,200) translate(130.98 93.15)"/><path d="M903.7 357.27l-20.65 9-1.2.46-13.9 5.17-16.68 5.4-20.17 5.62-24.72 5.78-30.7 5.83-38.63 5.68-49.38 5.15-64 3.97-82.98 1.66-.05-2 82.94-1.66 63.9-3.96 49.3-5.14 38.56-5.66 30.6-5.8 24.64-5.77 20.1-5.6 16.58-5.4 13.85-5.13 1.15-.46 20.58-8.95 33.3-16.65h4.48zm216.85-65.74l-5.12.2-17.12 1.43-18.08 2.27-19.06 3.2-19.96 4.23-20.68 5.3-21 6.3-7.88 2.74h-6.1l13.38-4.64 21.07-6.34 20.75-5.3 20.04-4.25 19.13-3.22 18.17-2.28 17.2-1.43 5.17-.2z"/><path d="M540.72 410.98l-1.08.02.03-1v-1l1-.02zM1135.77 290.1l-14.13 5.03-.27-9.26z"/><path d="M1139 290l-18.32 6.54-.35-12.02zm-16.4 3.73l9.93-3.54-10.12-3z"/><use xlink:href="#e" transform="matrix(1,0,0,1,927.0500349465797,317.20006989076035) translate(0 14.4)"/><path d="M1240 537c0 22.1-17.9 40-40 40s-40-17.9-40-40 17.9-40 40-40 40 17.9 40 40z" stroke="#000" stroke-width="2" fill="#fff"/><use xlink:href="#k" transform="matrix(1,0,0,1,1160,496.9944019172576) translate(28.53 44.4)"/><path d="M1260 557c0 22.1-17.9 40-40 40s-40-17.9-40-40 17.9-40 40-40 40 17.9 40 40z" stroke="#000" stroke-width="2" fill="#fff"/><use xlink:href="#k" transform="matrix(1,0,0,1,1180,516.9944019172576) translate(28.53 44.4)"/><path d="M1280 577c0 22.1-17.9 40-40 40s-40-17.9-40-40 17.9-40 40-40 40 17.9 40 40z" stroke="#000" stroke-width="2" fill="#fff"/><use xlink:href="#k" transform="matrix(1,0,0,1,1200,536.9944019172576) translate(28.53 44.4)"/><path d="M1300 597c0 22.1-17.9 40-40 40s-40-17.9-40-40 17.9-40 40-40 40 17.9 40 40z" stroke="#000" stroke-width="2" fill="#fff"/><use xlink:href="#k" transform="matrix(1,0,0,1,1220,556.9944019172576) translate(28.53 44.4)"/><path d="M1320 617c0 22.1-17.9 40-40 40s-40-17.9-40-40 17.9-40 40-40 40 17.9 40 40z" stroke="#000" stroke-width="2" fill="#fff"/><use xlink:href="#k" transform="matrix(1,0,0,1,1240,576.9944019172576) translate(28.53 44.4)"/><path d="M1340 637c0 22.1-17.9 40-40 40s-40-17.9-40-40 17.9-40 40-40 40 17.9 40 40z" stroke="#000" stroke-width="2" fill="#fff"/><use xlink:href="#l" transform="matrix(1,0,0,1,1260,596.9944019172576) translate(12.029999999999996 44.4)"/><path d="M1278.66 479.2l1.6 5.75 1.1 4.7.8 4.07.53 3.63.34 3.3.2 3.06.05 2.9-.06 2.7-.17 2.62-.26 2.5-.35 2.46-.46 2.4-.56 2.34-.65 2.33-.77 2.32-.86 2.32-.98 2.33-.17.34-1.8-.85.13-.3.95-2.26.85-2.25.72-2.23.63-2.25.53-2.27.44-2.3.35-2.37.26-2.43.16-2.52.05-2.64-.07-2.8-.2-2.98-.33-3.22-.52-3.54-.76-4-1.1-4.6-1.57-5.65-12.62-34.03h2.13zm-27.56-93.48l.3 4.88.54 5.1.8 5.42 1.12 5.84 1.53 6.48 2.1 7.5 1.04 3.23h-2.1l-.87-2.64-2.12-7.6-1.54-6.56-1.13-5.92-.8-5.5-.56-5.18-.3-4.96-.08-3.78 2-.04z"/><path d="M1250 381h1l.02 1-2 .05-.02-1.07zM1280.54 534.12l-11.53 9.6 3.7-14.55z"/><path d="M1282.24 534l-14.96 12.45 4.8-18.86zm-11.5 6.97l8.1-6.74-5.5-3.48z"/><use xlink:href="#m" transform="matrix(1,0,0,1,1216.7668119468422,424.1659561790669) translate(0 14.4)"/><path d="M1140 650c0 49.7-40.3 90-90 90s-90-40.3-90-90 40.3-90 90-90 90 40.3 90 90z" stroke="#000" stroke-width="2" fill="#c7e8ac" fill-opacity=".34"/><use xlink:href="#a" transform="matrix(1,0,0,1,960,560) translate(19.630000000000003 93.15)"/><use xlink:href="#n" transform="matrix(1,0,0,1,960,560) translate(47.53 93.15)"/><use xlink:href="#o" transform="matrix(1,0,0,1,960,560) translate(85.48 93.15)"/><path d="M1216.77 436.5l-1.1.78-5.96 3.96-7.57 4.58-10.3 5.64-16.6 8.2-66.15 30.66-10.2 5.6-7.52 4.53-5.9 3.9-4.8 3.5-4 3.17-3.4 2.94-2.94 2.75-2.55 2.6-2.23 2.48-1.97 2.38-1.74 2.3-1.55 2.22-1.38 2.18-1.24 2.14-1.1 2.1-.98 2.1-.88 2.07-.7 1.92-1.88-.7.72-1.96.9-2.16 1.03-2.16 1.14-2.18 1.3-2.2 1.4-2.26 1.6-2.3 1.8-2.36 2.03-2.45 2.28-2.53 2.62-2.66 3-2.8 3.46-3 4.07-3.23 4.87-3.53 5.97-3.96 7.57-4.58 10.3-5.65 66.2-30.68 16.54-8.16 10.23-5.6 7.5-4.55 5.9-3.9 2.24-1.63zm34.2-54.48l-.02 1.47-.15 2.4-.25 2.34-.34 2.28-.4 2.24-.53 2.2-.6 2.2-.7 2.15-.8 2.16-.92 2.16-1.02 2.16-1.14 2.18-1.3 2.2-1.4 2.26-1.6 2.3-1.8 2.36-2.03 2.45-2.28 2.53-2.07 2.1h-2.88l.93-.87 2.55-2.6 2.23-2.48 1.97-2.38 1.74-2.3 1.55-2.22 1.38-2.18 1.24-2.14 1.1-2.1.98-2.1.88-2.07.77-2.08.68-2.08.58-2.1.5-2.12.4-2.16.34-2.2.23-2.27.15-2.32.03-1.42z"/><path d="M1250 381h1l-.02 1.05-2-.04.02-1.02zM1057.47 542.5l-6.93 13.3-2.2-14.83z"/><path d="M1059 541.75l-9 17.25-2.86-19.24zm-7.93 10.87l4.88-9.35-6.43-1.08z"/><path d="M900 590c0 49.7-40.3 90-90 90s-90-40.3-90-90 40.3-90 90-90 90 40.3 90 90z" stroke="#000" stroke-width="2" fill="#c7e8ac" fill-opacity=".34"/><use xlink:href="#p" transform="matrix(1,0,0,1,720,500) translate(26.604999999999997 93.15)"/><use xlink:href="#q" transform="matrix(1,0,0,1,720,500) translate(119.40500000000002 93.15)"/><path d="M811.3 478.6l-.04 1.9h-2l.03-1.96 1.2-24.4h2zm105.2-279.22l-28.75 42.28-16.54 26.74-11.66 20.78-9 17.76L843.2 323l-6.14 15.1-5.24 14.68-4.55 14.63-3.46 12.98-.93-.22-2.2.1-1.7 1.1-.95 1.82.1 2.1 1.1 1.7 2.74 1.4-2.13 9.6-2.97 16.73-2.4 17.84h-2l2.42-18.14 3-16.82 1.78-8.12-1.84-.96-1.68-2.6-.15-3.16 1.43-2.77 2.6-1.67 2.3-.1 3-11.35 4.58-14.7 5.27-14.76 6.18-15.2 7.35-16.13 9.04-17.83 11.7-20.86 16.6-26.8 28.77-42.32z"/><path d="M915.7 197.62l1.35.95-.57.83-1.65-1.12.6-.88zM814.88 481.57l-4.83 14.2-4.44-14.34z"/><path d="M816.27 480.6L810 499l-5.75-18.6zm-6.18 11.93l3.4-9.98-6.52-.1z"/><use xlink:href="#r" transform="matrix(1,0,0,1,759.5584285408677,432.53708137788794) translate(0 14.4)"/><path d="M640 637c0 49.7-40.3 90-90 90s-90-40.3-90-90 40.3-90 90-90 90 40.3 90 90z" stroke="#000" stroke-width="2" fill="#c7e8ac" fill-opacity=".34"/><use xlink:href="#s" transform="matrix(1,0,0,1,460,546.9944019172576) translate(29.529999999999994 93.15)"/><use xlink:href="#q" transform="matrix(1,0,0,1,460,546.9944019172576) translate(116.48 93.15)"/><path d="M400 680c0 33.14-26.86 60-60 60s-60-26.86-60-60 26.86-60 60-60 60 26.86 60 60z" stroke="#000" stroke-width="2" fill="#fff"/><use xlink:href="#t" transform="matrix(1,0,0,1,280,620) translate(23.054999999999993 63.15)"/><path d="M718 590.03l-1.96.06-2.7.25-2.5.4-2.37.55-2.25.66-2.18.8-2.14.95-2.14 1.13-2.2 1.32-2.26 1.6-2.47 1.96-2.82 2.6-3.7 3.82-16.3 18.6-2.83 2.56-2.47 1.97-2.27 1.6-2.2 1.3-1.37.74" stroke="#000" stroke-width="2" fill="none"/><path d="M719 590v1l-1 .03-.06-2 1.1-.03z"/><path d="M644.15 636.27l12.87-7.72 2.08 9.04z" stroke="#000" stroke-width="2"/><path d="M458 637.04l-1.4.06-2.18.28-2.04.44-1.94.6-1.9.78-1.87.97-1.92 1.2-2.03 1.54-2.24 2.03-2.66 2.86-3.94 5.07-11.7 16.33-2.66 2.86-1.64 1.48" stroke="#000" stroke-width="2" fill="none"/><path d="M459 636.98v1l-.98.06-.1-2 1.1-.05z"/><path d="M404.02 678.84l11.67-9.42 3.3 8.65z" stroke="#000" stroke-width="2"/><path d="M220 780c0 33.14-26.86 60-60 60s-60-26.86-60-60 26.86-60 60-60 60 26.86 60 60z" stroke="#000" stroke-width="2" fill="#fff"/><g><use xlink:href="#u" transform="matrix(1,0,0,1,100,720) translate(21.554999999999993 63.15)"/></g><path d="M220 597c0 33.13-26.86 60-60 60s-60-26.87-60-60c0-33.14 26.86-60 60-60s60 26.86 60 60z" stroke="#000" stroke-width="2" fill="#fff"/><g><use xlink:href="#v" transform="matrix(1,0,0,1,100,536.9944019172576) translate(13.054999999999994 51.9)"/><use xlink:href="#w" transform="matrix(1,0,0,1,100,536.9944019172576) translate(40.53 73.5)"/></g><path d="M284.6 652.25l-2.36-1.26-3.13-2.02-3.1-2.35-3.15-2.8-3.38-3.53-3.96-4.83-18.68-26.5-2.57-2.7-2.28-2.02-2.14-1.62-1.24-.8" stroke="#000" stroke-width="2" fill="none"/><path d="M285.92 651.83l-.9 1.8-.92-.5.95-1.77z"/><path d="M224.12 597.85l15-.68-2.47 8.93z" stroke="#000" stroke-width="2"/><path d="M287.47 712.9l-2.27 1.44-3 2.23-2.98 2.57-3 3.02-3.17 3.68-3.5 4.78-4.63 7.4-13.9 24.5-2.74 3.72-2.3 2.7-2.12 2.1-2 1.73-1.93 1.44-1.3.83" stroke="#000" stroke-width="2" fill="none"/><path d="M288.63 712.9l.22.32-.87.54-1.07-1.7.9-.55z"/><path d="M224.12 778.87l12.6-8.13 2.38 8.96z" stroke="#000" stroke-width="2"/><defs><path d="M33 0v-38h34V0H33" id="x"/><path d="M117-194c89-4 53 116 60 194h-32v-121c0-31-8-49-39-48C34-167 62-67 57 0H25l-1-190h30c1 10-1 24 2 32 11-22 29-35 61-36" id="y"/><path d="M24-231v-30h32v30H24zM24 0v-190h32V0H24" id="z"/><g id="a"><use transform="matrix(0.05,0,0,0.05,0,0)" xlink:href="#x"/><use transform="matrix(0.05,0,0,0.05,5,0)" xlink:href="#y"/><use transform="matrix(0.05,0,0,0.05,15,0)" xlink:href="#z"/><use transform="matrix(0.05,0,0,0.05,18.95,0)" xlink:href="#z"/></g><path d="M114-163C36-179 61-72 57 0H25l-1-190h30c1 12-1 29 2 39 6-27 23-49 58-41v29" id="A"/><path d="M100-194c63 0 86 42 84 106H49c0 40 14 67 53 68 26 1 43-12 49-29l28 8c-11 28-37 45-77 45C44 4 14-33 15-96c1-61 26-98 85-98zm52 81c6-60-76-77-97-28-3 7-6 17-6 28h103" id="B"/><path d="M141-36C126-15 110 5 73 4 37 3 15-17 15-53c-1-64 63-63 125-63 3-35-9-54-41-54-24 1-41 7-42 31l-33-3c5-37 33-52 76-52 45 0 72 20 72 64v82c-1 20 7 32 28 27v20c-31 9-61-2-59-35zM48-53c0 20 12 33 32 33 41-3 63-29 60-74-43 2-92-5-92 41" id="C"/><path d="M24 0v-261h32V0H24" id="D"/><path d="M177-190C167-65 218 103 67 71c-23-6-38-20-44-43l32-5c15 47 100 32 89-28v-30C133-14 115 1 83 1 29 1 15-40 15-95c0-56 16-97 71-98 29-1 48 16 59 35 1-10 0-23 2-32h30zM94-22c36 0 50-32 50-73 0-42-14-75-50-75-39 0-46 34-46 75s6 73 46 73" id="E"/><path d="M85-194c31 0 48 13 60 33l-1-100h32l1 261h-30c-2-10 0-23-3-31C134-8 116 4 85 4 32 4 16-35 15-94c0-66 23-100 70-100zm9 24c-40 0-46 34-46 75 0 40 6 74 45 74 42 0 51-32 51-76 0-42-9-74-50-73" id="F"/><g id="b"><use transform="matrix(0.05,0,0,0.05,0,0)" xlink:href="#A"/><use transform="matrix(0.05,0,0,0.05,5.95,0)" xlink:href="#B"/><use transform="matrix(0.05,0,0,0.05,15.949999999999998,0)" xlink:href="#C"/><use transform="matrix(0.05,0,0,0.05,25.950000000000003,0)" xlink:href="#D"/><use transform="matrix(0.05,0,0,0.05,29.899999999999995,0)" xlink:href="#z"/><use transform="matrix(0.05,0,0,0.05,33.85,0)" xlink:href="#E"/><use transform="matrix(0.05,0,0,0.05,43.85,0)" xlink:href="#y"/><use transform="matrix(0.05,0,0,0.05,53.85,0)" xlink:href="#B"/><use transform="matrix(0.05,0,0,0.05,63.85,0)" xlink:href="#F"/></g><path d="M101-234c-31-9-42 10-38 44h38v23H63V0H32v-167H5v-23h27c-7-52 17-82 69-68v24" id="G"/><path d="M84 4C-5 8 30-112 23-190h32v120c0 31 7 50 39 49 72-2 45-101 50-169h31l1 190h-30c-1-10 1-25-2-33-11 22-28 36-60 37" id="H"/><path d="M96-169c-40 0-48 33-48 73s9 75 48 75c24 0 41-14 43-38l32 2c-6 37-31 61-74 61-59 0-76-41-82-99-10-93 101-131 147-64 4 7 5 14 7 22l-32 3c-4-21-16-35-41-35" id="I"/><path d="M0 4l72-265h28L28 4H0" id="J"/><g id="c"><use transform="matrix(0.05,0,0,0.05,0,0)" xlink:href="#G"/><use transform="matrix(0.05,0,0,0.05,5,0)" xlink:href="#H"/><use transform="matrix(0.05,0,0,0.05,15,0)" xlink:href="#y"/><use transform="matrix(0.05,0,0,0.05,25,0)" xlink:href="#I"/><use transform="matrix(0.05,0,0,0.05,34,0)" xlink:href="#J"/></g><path d="M9 0v-24l116-142H16v-24h144v24L44-24h123V0H9" id="K"/><g id="d"><use transform="matrix(0.05,0,0,0.05,0,0)" xlink:href="#x"/><use transform="matrix(0.05,0,0,0.05,5,0)" xlink:href="#y"/><use transform="matrix(0.05,0,0,0.05,15,0)" xlink:href="#z"/><use transform="matrix(0.05,0,0,0.05,18.95,0)" xlink:href="#z"/><use transform="matrix(0.05,0,0,0.05,22.9,0)" xlink:href="#x"/><use transform="matrix(0.05,0,0,0.05,27.899999999999995,0)" xlink:href="#E"/><use transform="matrix(0.05,0,0,0.05,37.9,0)" xlink:href="#K"/></g><path d="M212-179c-10-28-35-45-73-45-59 0-87 40-87 99 0 60 29 101 89 101 43 0 62-24 78-52l27 14C228-24 195 4 139 4 59 4 22-46 18-125c-6-104 99-153 187-111 19 9 31 26 39 46" id="L"/><path d="M140-251c81 0 123 46 123 126C263-46 219 4 140 4 59 4 17-45 17-125s42-126 123-126zm0 227c63 0 89-41 89-101s-29-99-89-99c-61 0-89 39-89 99S79-25 140-24" id="M"/><path d="M233-177c-1 41-23 64-60 70L243 0h-38l-65-103H63V0H30v-248c88 3 205-21 203 71zM63-129c60-2 137 13 137-47 0-61-80-42-137-45v92" id="N"/><path d="M30 0v-248h187v28H63v79h144v27H63v87h162V0H30" id="O"/><path d="M143 4C61 4 22-44 18-125c-5-107 100-154 193-111 17 8 29 25 37 43l-32 9c-13-25-37-40-76-40-61 0-88 39-88 99 0 61 29 100 91 101 35 0 62-11 79-27v-45h-74v-28h105v86C228-13 192 4 143 4" id="P"/><g id="e"><use transform="matrix(0.05,0,0,0.05,0,0)" xlink:href="#L"/><use transform="matrix(0.05,0,0,0.05,12.950000000000001,0)" xlink:href="#M"/><use transform="matrix(0.05,0,0,0.05,26.950000000000003,0)" xlink:href="#N"/><use transform="matrix(0.05,0,0,0.05,39.900000000000006,0)" xlink:href="#O"/><use transform="matrix(0.05,0,0,0.05,51.900000000000006,0)" xlink:href="#P"/></g><path d="M59-47c-2 24 18 29 38 22v24C64 9 27 4 27-40v-127H5v-23h24l9-43h21v43h35v23H59v120" id="Q"/><g id="f"><use transform="matrix(0.05,0,0,0.05,0,0)" xlink:href="#C"/><use transform="matrix(0.05,0,0,0.05,10,0)" xlink:href="#y"/><use transform="matrix(0.05,0,0,0.05,20,0)" xlink:href="#C"/><use transform="matrix(0.05,0,0,0.05,30,0)" xlink:href="#Q"/><use transform="matrix(0.05,0,0,0.05,35,0)" xlink:href="#J"/></g><path d="M232-93c-1 65-40 97-104 97C67 4 28-28 28-90v-158h33c8 89-33 224 67 224 102 0 64-133 71-224h33v155" id="R"/><path d="M190 0L58-211 59 0H30v-248h39L202-35l-2-213h31V0h-41" id="S"/><path d="M209 0H11v-25l151-195H24v-28h176v25L50-27h159V0" id="T"/><path d="M33 0v-248h34V0H33" id="U"/><path d="M30-248c87 1 191-15 191 75 0 78-77 80-158 76V0H30v-248zm33 125c57 0 124 11 124-50 0-59-68-47-124-48v98" id="V"/><g id="g"><use transform="matrix(0.05,0,0,0.05,0,0)" xlink:href="#R"/><use transform="matrix(0.05,0,0,0.05,12.950000000000001,0)" xlink:href="#S"/><use transform="matrix(0.05,0,0,0.05,25.900000000000002,0)" xlink:href="#T"/><use transform="matrix(0.05,0,0,0.05,36.85,0)" xlink:href="#U"/><use transform="matrix(0.05,0,0,0.05,41.85,0)" xlink:href="#V"/></g><path d="M205 0l-28-72H64L36 0H1l101-248h38L239 0h-34zm-38-99l-47-123c-12 45-31 82-46 123h93" id="W"/><path d="M30 0v-248h33v221h125V0H30" id="X"/><g id="h"><use transform="matrix(0.05,0,0,0.05,0,0)" xlink:href="#N"/><use transform="matrix(0.05,0,0,0.05,12.950000000000001,0)" xlink:href="#O"/><use transform="matrix(0.05,0,0,0.05,24.950000000000003,0)" xlink:href="#W"/><use transform="matrix(0.05,0,0,0.05,36.95,0)" xlink:href="#X"/><use transform="matrix(0.05,0,0,0.05,46.95,0)" xlink:href="#U"/><use transform="matrix(0.05,0,0,0.05,51.95,0)" xlink:href="#P"/><use transform="matrix(0.05,0,0,0.05,65.95,0)" xlink:href="#S"/></g><path d="M115-194c55 1 70 41 70 98S169 2 115 4C84 4 66-9 55-30l1 105H24l-1-265h31l2 30c10-21 28-34 59-34zm-8 174c40 0 45-34 45-75s-6-73-45-74c-42 0-51 32-51 76 0 43 10 73 51 73" id="Y"/><g id="i"><use transform="matrix(0.05,0,0,0.05,0,0)" xlink:href="#H"/><use transform="matrix(0.05,0,0,0.05,10,0)" xlink:href="#Y"/><use transform="matrix(0.05,0,0,0.05,20,0)" xlink:href="#F"/><use transform="matrix(0.05,0,0,0.05,30,0)" xlink:href="#C"/><use transform="matrix(0.05,0,0,0.05,40,0)" xlink:href="#Q"/><use transform="matrix(0.05,0,0,0.05,45,0)" xlink:href="#B"/><use transform="matrix(0.05,0,0,0.05,55,0)" xlink:href="#F"/></g><path d="M106-169C34-169 62-67 57 0H25v-261h32l-1 103c12-21 28-36 61-36 89 0 53 116 60 194h-32v-121c2-32-8-49-39-48" id="Z"/><g id="j"><use transform="matrix(0.05,0,0,0.05,0,0)" xlink:href="#Z"/><use transform="matrix(0.05,0,0,0.05,10,0)" xlink:href="#B"/><use transform="matrix(0.05,0,0,0.05,20,0)" xlink:href="#C"/><use transform="matrix(0.05,0,0,0.05,30,0)" xlink:href="#F"/><use transform="matrix(0.05,0,0,0.05,40,0)" xlink:href="#B"/><use transform="matrix(0.05,0,0,0.05,50,0)" xlink:href="#A"/></g><path d="M27 0v-27h64v-190l-56 39v-29l58-41h29v221h61V0H27" id="aa"/><g id="k"><use transform="matrix(0.05,0,0,0.05,0,0)" xlink:href="#L"/><use transform="matrix(0.05,0,0,0.05,12.950000000000001,0)" xlink:href="#aa"/></g><path d="M135-143c-3-34-86-38-87 0 15 53 115 12 119 90S17 21 10-45l28-5c4 36 97 45 98 0-10-56-113-15-118-90-4-57 82-63 122-42 12 7 21 19 24 35" id="ab"/><g id="l"><use transform="matrix(0.05,0,0,0.05,0,0)" xlink:href="#Q"/><use transform="matrix(0.05,0,0,0.05,5,0)" xlink:href="#z"/><use transform="matrix(0.05,0,0,0.05,8.95,0)" xlink:href="#ab"/><use transform="matrix(0.05,0,0,0.05,17.95,0)" xlink:href="#ab"/><use transform="matrix(0.05,0,0,0.05,26.950000000000003,0)" xlink:href="#H"/><use transform="matrix(0.05,0,0,0.05,36.95,0)" xlink:href="#B"/><use transform="matrix(0.05,0,0,0.05,46.95,0)" xlink:href="#ab"/></g><path d="M185-189c-5-48-123-54-124 2 14 75 158 14 163 119 3 78-121 87-175 55-17-10-28-26-33-46l33-7c5 56 141 63 141-1 0-78-155-14-162-118-5-82 145-84 179-34 5 7 8 16 11 25" id="ac"/><path d="M240 0l2-218c-23 76-54 145-80 218h-23L58-218 59 0H30v-248h44l77 211c21-75 51-140 76-211h43V0h-30" id="ad"/><path d="M127-220V0H93v-220H8v-28h204v28h-85" id="ae"/><g id="m"><use transform="matrix(0.05,0,0,0.05,0,0)" xlink:href="#ac"/><use transform="matrix(0.05,0,0,0.05,12,0)" xlink:href="#O"/><use transform="matrix(0.05,0,0,0.05,24,0)" xlink:href="#P"/><use transform="matrix(0.05,0,0,0.05,38,0)" xlink:href="#ad"/><use transform="matrix(0.05,0,0,0.05,52.95,0)" xlink:href="#O"/><use transform="matrix(0.05,0,0,0.05,64.95,0)" xlink:href="#S"/><use transform="matrix(0.05,0,0,0.05,77.9,0)" xlink:href="#ae"/></g><path d="M115-194c53 0 69 39 70 98 0 66-23 100-70 100C84 3 66-7 56-30L54 0H23l1-261h32v101c10-23 28-34 59-34zm-8 174c40 0 45-34 45-75 0-40-5-75-45-74-42 0-51 32-51 76 0 43 10 73 51 73" id="af"/><g id="n"><use transform="matrix(0.05,0,0,0.05,0,0)" xlink:href="#af"/><use transform="matrix(0.05,0,0,0.05,10,0)" xlink:href="#z"/><use transform="matrix(0.05,0,0,0.05,13.949999999999998,0)" xlink:href="#C"/><use transform="matrix(0.05,0,0,0.05,23.95,0)" xlink:href="#ab"/></g><path d="M100-194c62-1 85 37 85 99 1 63-27 99-86 99S16-35 15-95c0-66 28-99 85-99zM99-20c44 1 53-31 53-75 0-43-8-75-51-75s-53 32-53 75 10 74 51 75" id="ag"/><g id="o"><use transform="matrix(0.05,0,0,0.05,0,0)" xlink:href="#I"/><use transform="matrix(0.05,0,0,0.05,9,0)" xlink:href="#ag"/><use transform="matrix(0.05,0,0,0.05,19,0)" xlink:href="#A"/><use transform="matrix(0.05,0,0,0.05,24.95,0)" xlink:href="#A"/><use transform="matrix(0.05,0,0,0.05,30.899999999999995,0)" xlink:href="#B"/><use transform="matrix(0.05,0,0,0.05,40.9,0)" xlink:href="#I"/><use transform="matrix(0.05,0,0,0.05,49.9,0)" xlink:href="#Q"/><use transform="matrix(0.05,0,0,0.05,54.900000000000006,0)" xlink:href="#B"/><use transform="matrix(0.05,0,0,0.05,64.9,0)" xlink:href="#F"/></g><path d="M210-169c-67 3-38 105-44 169h-31v-121c0-29-5-50-35-48C34-165 62-65 56 0H25l-1-190h30c1 10-1 24 2 32 10-44 99-50 107 0 11-21 27-35 58-36 85-2 47 119 55 194h-31v-121c0-29-5-49-35-48" id="ah"/><g id="p"><use transform="matrix(0.05,0,0,0.05,0,0)" xlink:href="#y"/><use transform="matrix(0.05,0,0,0.05,10,0)" xlink:href="#ag"/><use transform="matrix(0.05,0,0,0.05,20,0)" xlink:href="#A"/><use transform="matrix(0.05,0,0,0.05,25.950000000000003,0)" xlink:href="#ah"/><use transform="matrix(0.05,0,0,0.05,40.9,0)" xlink:href="#C"/><use transform="matrix(0.05,0,0,0.05,50.9,0)" xlink:href="#D"/><use transform="matrix(0.05,0,0,0.05,54.85,0)" xlink:href="#z"/><use transform="matrix(0.05,0,0,0.05,58.800000000000004,0)" xlink:href="#ab"/><use transform="matrix(0.05,0,0,0.05,67.80000000000001,0)" xlink:href="#B"/><use transform="matrix(0.05,0,0,0.05,77.80000000000001,0)" xlink:href="#F"/></g><g id="q"><use transform="matrix(0.05,0,0,0.05,0,0)" xlink:href="#G"/><use transform="matrix(0.05,0,0,0.05,5,0)" xlink:href="#H"/><use transform="matrix(0.05,0,0,0.05,15,0)" xlink:href="#y"/><use transform="matrix(0.05,0,0,0.05,25,0)" xlink:href="#I"/></g><g id="r"><use transform="matrix(0.05,0,0,0.05,0,0)" xlink:href="#S"/><use transform="matrix(0.05,0,0,0.05,12.950000000000001,0)" xlink:href="#M"/><use transform="matrix(0.05,0,0,0.05,26.950000000000003,0)" xlink:href="#N"/><use transform="matrix(0.05,0,0,0.05,39.900000000000006,0)" xlink:href="#ad"/><use transform="matrix(0.05,0,0,0.05,54.85,0)" xlink:href="#W"/><use transform="matrix(0.05,0,0,0.05,66.85000000000001,0)" xlink:href="#X"/><use transform="matrix(0.05,0,0,0.05,76.85000000000001,0)" xlink:href="#U"/><use transform="matrix(0.05,0,0,0.05,81.85000000000001,0)" xlink:href="#ac"/><use transform="matrix(0.05,0,0,0.05,93.85000000000001,0)" xlink:href="#O"/></g><g id="s"><use transform="matrix(0.05,0,0,0.05,0,0)" xlink:href="#ac"/><use transform="matrix(0.05,0,0,0.05,12,0)" xlink:href="#ah"/><use transform="matrix(0.05,0,0,0.05,26.950000000000003,0)" xlink:href="#ag"/><use transform="matrix(0.05,0,0,0.05,36.95,0)" xlink:href="#ag"/><use transform="matrix(0.05,0,0,0.05,46.95,0)" xlink:href="#Q"/><use transform="matrix(0.05,0,0,0.05,51.95,0)" xlink:href="#Z"/><use transform="matrix(0.05,0,0,0.05,61.95,0)" xlink:href="#B"/><use transform="matrix(0.05,0,0,0.05,71.95,0)" xlink:href="#F"/></g><g id="t"><use transform="matrix(0.05,0,0,0.05,0,0)" xlink:href="#ac"/><use transform="matrix(0.05,0,0,0.05,12,0)" xlink:href="#V"/><use transform="matrix(0.05,0,0,0.05,24,0)" xlink:href="#ad"/><use transform="matrix(0.05,0,0,0.05,38.95,0)" xlink:href="#x"/><use transform="matrix(0.05,0,0,0.05,43.95,0)" xlink:href="#ah"/><use transform="matrix(0.05,0,0,0.05,58.900000000000006,0)" xlink:href="#C"/><use transform="matrix(0.05,0,0,0.05,68.9,0)" xlink:href="#Q"/></g><g id="u"><use transform="matrix(0.05,0,0,0.05,0,0)" xlink:href="#A"/><use transform="matrix(0.05,0,0,0.05,5.95,0)" xlink:href="#B"/><use transform="matrix(0.05,0,0,0.05,15.949999999999998,0)" xlink:href="#Y"/><use transform="matrix(0.05,0,0,0.05,25.950000000000003,0)" xlink:href="#ag"/><use transform="matrix(0.05,0,0,0.05,35.95,0)" xlink:href="#A"/><use transform="matrix(0.05,0,0,0.05,41.900000000000006,0)" xlink:href="#Q"/><use transform="matrix(0.05,0,0,0.05,46.900000000000006,0)" xlink:href="#x"/><use transform="matrix(0.05,0,0,0.05,51.900000000000006,0)" xlink:href="#Y"/><use transform="matrix(0.05,0,0,0.05,61.900000000000006,0)" xlink:href="#F"/><use transform="matrix(0.05,0,0,0.05,71.9,0)" xlink:href="#G"/></g><g id="v"><use transform="matrix(0.05,0,0,0.05,0,0)" xlink:href="#Q"/><use transform="matrix(0.05,0,0,0.05,5,0)" xlink:href="#Z"/><use transform="matrix(0.05,0,0,0.05,15,0)" xlink:href="#A"/><use transform="matrix(0.05,0,0,0.05,20.95,0)" xlink:href="#B"/><use transform="matrix(0.05,0,0,0.05,30.950000000000003,0)" xlink:href="#ab"/><use transform="matrix(0.05,0,0,0.05,39.95,0)" xlink:href="#Z"/><use transform="matrix(0.05,0,0,0.05,49.95,0)" xlink:href="#ag"/><use transform="matrix(0.05,0,0,0.05,59.95,0)" xlink:href="#D"/><use transform="matrix(0.05,0,0,0.05,63.900000000000006,0)" xlink:href="#F"/><use transform="matrix(0.05,0,0,0.05,73.9,0)" xlink:href="#B"/><use transform="matrix(0.05,0,0,0.05,83.9,0)" xlink:href="#F"/></g><g id="w"><use transform="matrix(0.05,0,0,0.05,0,0)" xlink:href="#ac"/><use transform="matrix(0.05,0,0,0.05,12,0)" xlink:href="#V"/><use transform="matrix(0.05,0,0,0.05,24,0)" xlink:href="#ad"/></g></defs></g></svg>